SplineFontDB: 3.2
FontName: Untitled2
FullName: Untitled2
FamilyName: Untitled2
Weight: Regular
Copyright: Copyright (c) 2021, sergei
UComments: "2021-7-9: Created with FontForge (http://fontforge.org)"
Version: 001.000
ItalicAngle: 0
UnderlinePosition: -102
UnderlineWidth: 51
Ascent: 819
Descent: 205
InvalidEm: 0
LayerCount: 2
Layer: 0 0 "Back" 1
Layer: 1 0 "Fore" 0
XUID: [1021 386 1253518015 14269954]
StyleMap: 0x0000
FSType: 0
OS2Version: 0
OS2_WeightWidthSlopeOnly: 0
OS2_UseTypoMetrics: 1
CreationTime: 1625798303
ModificationTime: 1627004723
OS2TypoAscent: 0
OS2TypoAOffset: 1
OS2TypoDescent: 0
OS2TypoDOffset: 1
OS2TypoLinegap: 92
OS2WinAscent: 0
OS2WinAOffset: 1
OS2WinDescent: 0
OS2WinDOffset: 1
HheadAscent: 0
HheadAOffset: 1
HheadDescent: 0
HheadDOffset: 1
MarkAttachClasses: 1
DEI: 91125
Encoding: ISO8859-1
UnicodeInterp: none
NameList: AGL For New Fonts
DisplaySize: -48
AntiAlias: 1
FitToEm: 0
WinInfo: 0 35 12
BeginPrivate: 1
BlueValues 15 [-20 0 701 701]
EndPrivate
Grid
-1024 -80 m 4
 2048 -80 l 1028
  Named: "t2"
-1024 46 m 0
 2048 46 l 1024
  Named: "t1"
-1024 158 m 0
 2048 158 l 1024
  Named: "5"
-1024 272 m 0
 2048 272 l 1024
  Named: "4"
-1024 384 m 0
 2048 384 l 1024
  Named: "3"
-1024 494 m 0
 2048 494 l 1024
  Named: "2"
-1024 700 m 0
 2048 700 l 1024
  Named: "0"
-1024 600 m 0
 2048 600 l 1024
  Named: "1"
818.416992188 1331 m 0
 818.416992188 -717 l 1024
  Named: "full"
666.440429688 1331 m 0
 666.440429688 -717 l 1024
  Named: "half"
513 1331 m 0
 513 -717 l 1024
EndSplineSet
AnchorClass2: "123""" 
BeginChars: 256 34

StartChar: A
Encoding: 65 65 0
Width: 1000
VWidth: 0
Flags: HW
HStem: 284 46<475.978 524.021>
VStem: 475.97 48.0596<284.065 329.935>
LayerCount: 2
Fore
SplineSet
465.970703125 307 m 0
 465.970703125 326.0078125 481.969726562 340 500.000976562 340 c 0
 518.03125 340 534.029296875 326.0078125 534.029296875 307 c 0
 534.029296875 287.9921875 518.03125 274 500.000976562 274 c 0
 481.96875 274 465.970703125 287.9921875 465.970703125 307 c 0
EndSplineSet
EndChar

StartChar: B
Encoding: 66 66 1
Width: 1024
VWidth: 0
Flags: HW
HStem: 680 20G<430.28 440.28>
VStem: 430.28 10<46 158 168 700>
LayerCount: 2
Fore
SplineSet
430.279296875 710 m 2
 440.279296875 710 l 2
 446.333007812 710 450.279296875 704.291992188 450.279296875 700 c 2
 450.279296875 174.995117188 l 1
 597.1484375 121.393554688 l 2
 601.055664062 119.967773438 603.720703125 116.143554688 603.720703125 112 c 2
 603.720703125 102 l 2
 603.720703125 95.3974609375 596.990234375 90.1611328125 590.291992188 92.6064453125 c 2
 450.279296875 143.705078125 l 1
 450.279296875 46 l 2
 450.279296875 39.947265625 444.571289062 36 440.279296875 36 c 2
 430.279296875 36 l 2
 424.2265625 36 420.279296875 41.7080078125 420.279296875 46 c 2
 420.279296875 700 l 2
 420.279296875 706.052734375 425.98828125 710 430.279296875 710 c 2
EndSplineSet
EndChar

StartChar: Z
Encoding: 90 90 2
Width: 1024
VWidth: 0
Flags: HW
HStem: 680 20G<354.126 364.126>
VStem: 354.126 10<46 158 168 272 282 384 394 700>
LayerCount: 2
Fore
SplineSet
354.125976562 710 m 2
 364.125976562 710 l 2
 370.178710938 710 374.125976562 704.291992188 374.125976562 700 c 2
 374.125976562 400.953125 l 1
 521.047851562 346.374023438 l 2
 524.944335938 344.926757812 527.56640625 341.078125 527.56640625 337 c 2
 527.56640625 327 l 2
 527.56640625 320.375976562 520.791992188 315.133789062 514.083984375 317.625976562 c 2
 374.125976562 369.6171875 l 1
 374.125976562 288.94140625 l 1
 673.0390625 177.368164062 l 2
 676.932617188 175.915039062 679.54296875 172.060546875 679.54296875 168 c 2
 679.54296875 158 l 2
 679.54296875 151.370117188 672.756835938 146.125976562 666.045898438 148.631835938 c 2
 374.125976562 257.59375 l 1
 374.125976562 174.984375 l 1
 672.985351562 65.388671875 l 2
 676.889648438 63.95703125 679.54296875 60.1259765625 679.54296875 56 c 2
 679.54296875 46 l 2
 679.54296875 39.3916015625 672.80078125 34.154296875 666.099609375 36.611328125 c 2
 374.125976562 143.681640625 l 1
 374.125976562 52.697265625 l 1
 673.932617188 -70.7529296875 l 2
 684.198242188 -74.9794921875 680.008789062 -90 670.125976562 -90 c 2
 415.315429688 -90 l 1
 673.334960938 -195.747070312 l 2
 683.603515625 -199.956054688 679.454101562 -215 669.54296875 -215 c 2
 354.125976562 -215 l 2
 348.072265625 -215 344.125976562 -209.291992188 344.125976562 -205 c 0
 344.125976562 96.6669921875 344.125976562 398.333007812 344.125976562 700 c 0
 344.125976562 706.052734375 349.833984375 710 354.125976562 710 c 2
EndSplineSet
EndChar

StartChar: M
Encoding: 77 77 3
Width: 1024
VWidth: 0
Flags: HW
HStem: 680 20G<354.292 364.292>
VStem: 354.292 10<46 158 168 700>
LayerCount: 2
Fore
SplineSet
354.291015625 710 m 2
 364.291015625 710 l 2
 370.344726562 710 374.291015625 704.291992188 374.291015625 700 c 2
 374.291015625 174.984375 l 1
 673.151367188 65.388671875 l 2
 677.055664062 63.95703125 679.708984375 60.1259765625 679.708984375 56 c 2
 679.708984375 46 l 2
 679.708984375 39.3916015625 672.966796875 34.154296875 666.265625 36.611328125 c 2
 374.291015625 143.681640625 l 1
 374.291015625 52.6923828125 l 1
 673.522460938 -70.755859375 l 2
 683.78515625 -74.990234375 679.581054688 -90 669.708984375 -90 c 2
 354.291015625 -90 l 2
 348.23828125 -90 344.291015625 -84.2919921875 344.291015625 -80 c 2
 344.291015625 700 l 2
 344.291015625 706.052734375 350 710 354.291015625 710 c 2
EndSplineSet
EndChar

StartChar: Y
Encoding: 89 89 4
Width: 1024
VWidth: 0
Flags: HW
HStem: 680 20G<354.126 364.126>
VStem: 354.126 10<46 158 168 272 282 700>
LayerCount: 2
Fore
SplineSet
354.125976562 710 m 2
 364.125976562 710 l 2
 370.178710938 710 374.125976562 704.291992188 374.125976562 700 c 2
 374.125976562 288.94140625 l 1
 673.0390625 177.368164062 l 2
 676.932617188 175.915039062 679.54296875 172.060546875 679.54296875 168 c 2
 679.54296875 158 l 2
 679.54296875 151.370117188 672.756835938 146.125976562 666.045898438 148.631835938 c 2
 374.125976562 257.59375 l 1
 374.125976562 174.984375 l 1
 672.985351562 65.388671875 l 2
 676.889648438 63.95703125 679.54296875 60.1259765625 679.54296875 56 c 2
 679.54296875 46 l 2
 679.54296875 39.3916015625 672.80078125 34.154296875 666.099609375 36.611328125 c 2
 374.125976562 143.681640625 l 1
 374.125976562 52.697265625 l 1
 673.932617188 -70.7529296875 l 2
 684.198242188 -74.9794921875 680.008789062 -90 670.125976562 -90 c 2
 415.315429688 -90 l 1
 673.334960938 -195.747070312 l 2
 683.603515625 -199.956054688 679.454101562 -215 669.54296875 -215 c 2
 354.125976562 -215 l 2
 348.072265625 -215 344.125976562 -209.291992188 344.125976562 -205 c 0
 344.125976562 96.6669921875 344.125976562 398.333007812 344.125976562 700 c 0
 344.125976562 706.052734375 349.833984375 710 354.125976562 710 c 2
EndSplineSet
EndChar

StartChar: X
Encoding: 88 88 5
Width: 1024
VWidth: 0
Flags: HW
HStem: 680 20G<354.126 364.126>
VStem: 354.126 10<46 158 168 272 282 700>
LayerCount: 2
Fore
SplineSet
354.125976562 710 m 2
 364.125976562 710 l 2
 370.178710938 710 374.125976562 704.291992188 374.125976562 700 c 2
 374.125976562 288.953125 l 1
 521.047851562 234.374023438 l 2
 524.944335938 232.926757812 527.56640625 229.078125 527.56640625 225 c 2
 527.56640625 215 l 2
 527.56640625 208.375976562 520.791992188 203.133789062 514.083984375 205.625976562 c 2
 374.125976562 257.6171875 l 1
 374.125976562 174.984375 l 1
 672.985351562 65.388671875 l 2
 676.889648438 63.95703125 679.54296875 60.1259765625 679.54296875 56 c 2
 679.54296875 46 l 2
 679.54296875 39.3916015625 672.80078125 34.154296875 666.099609375 36.611328125 c 2
 374.125976562 143.681640625 l 1
 374.125976562 52.697265625 l 1
 673.932617188 -70.7529296875 l 2
 684.198242188 -74.9794921875 680.008789062 -90 670.125976562 -90 c 2
 415.315429688 -90 l 1
 673.334960938 -195.747070312 l 2
 683.603515625 -199.956054688 679.454101562 -215 669.54296875 -215 c 2
 354.125976562 -215 l 2
 348.072265625 -215 344.125976562 -209.291992188 344.125976562 -205 c 0
 344.125976562 96.6669921875 344.125976562 398.333007812 344.125976562 700 c 0
 344.125976562 706.052734375 349.833984375 710 354.125976562 710 c 2
EndSplineSet
EndChar

StartChar: W
Encoding: 87 87 6
Width: 1024
VWidth: 0
Flags: HW
HStem: 680 20G<354.126 364.126>
VStem: 354.126 10<46 158 168 700>
LayerCount: 2
Fore
SplineSet
354.125976562 710 m 2
 364.125976562 710 l 2
 370.178710938 710 374.125976562 704.291992188 374.125976562 700 c 2
 374.125976562 174.984375 l 1
 672.985351562 65.388671875 l 2
 676.889648438 63.95703125 679.54296875 60.1259765625 679.54296875 56 c 2
 679.54296875 46 l 2
 679.54296875 39.3916015625 672.80078125 34.154296875 666.099609375 36.611328125 c 2
 374.125976562 143.681640625 l 1
 374.125976562 52.697265625 l 1
 673.932617188 -70.7529296875 l 2
 684.198242188 -74.9794921875 680.008789062 -90 670.125976562 -90 c 2
 415.315429688 -90 l 1
 673.334960938 -195.747070312 l 2
 683.603515625 -199.956054688 679.454101562 -215 669.54296875 -215 c 2
 354.125976562 -215 l 2
 348.072265625 -215 344.125976562 -209.291992188 344.125976562 -205 c 0
 344.125976562 96.6669921875 344.125976562 398.333007812 344.125976562 700 c 0
 344.125976562 706.052734375 349.833984375 710 354.125976562 710 c 2
EndSplineSet
EndChar

StartChar: V
Encoding: 86 86 7
Width: 1024
VWidth: 0
Flags: HW
HStem: 680 20G<354.126 364.126>
VStem: 354.126 10<46 158 168 700>
LayerCount: 2
Fore
SplineSet
354.125976562 710 m 2
 364.125976562 710 l 2
 370.178710938 710 374.125976562 704.291992188 374.125976562 700 c 2
 374.125976562 174.995117188 l 1
 520.994140625 121.393554688 l 2
 524.901367188 119.967773438 527.56640625 116.143554688 527.56640625 112 c 2
 527.56640625 102 l 2
 527.56640625 95.3974609375 520.8359375 90.1611328125 514.137695312 92.6064453125 c 2
 374.125976562 143.705078125 l 1
 374.125976562 52.697265625 l 1
 673.932617188 -70.7529296875 l 2
 684.198242188 -74.9794921875 680.008789062 -90 670.125976562 -90 c 2
 415.315429688 -90 l 1
 673.334960938 -195.747070312 l 2
 683.603515625 -199.956054688 679.454101562 -215 669.54296875 -215 c 2
 354.125976562 -215 l 2
 348.072265625 -215 344.125976562 -209.291992188 344.125976562 -205 c 0
 344.125976562 96.6669921875 344.125976562 398.333007812 344.125976562 700 c 0
 344.125976562 706.052734375 349.833984375 710 354.125976562 710 c 2
EndSplineSet
EndChar

StartChar: U
Encoding: 85 85 8
Width: 1024
VWidth: 0
Flags: HW
HStem: 680 20G<354.126 364.126>
VStem: 354.126 10<46 700>
LayerCount: 2
Fore
SplineSet
354.125976562 710 m 2
 364.125976562 710 l 2
 370.178710938 710 374.125976562 704.291992188 374.125976562 700 c 2
 374.125976562 52.697265625 l 1
 673.932617188 -70.7529296875 l 2
 684.198242188 -74.9794921875 680.008789062 -90 670.125976562 -90 c 2
 415.315429688 -90 l 1
 673.334960938 -195.747070312 l 2
 683.603515625 -199.956054688 679.454101562 -215 669.54296875 -215 c 2
 354.125976562 -215 l 2
 348.072265625 -215 344.125976562 -209.291992188 344.125976562 -205 c 0
 344.125976562 96.6669921875 344.125976562 398.333007812 344.125976562 700 c 0
 344.125976562 706.052734375 349.833984375 710 354.125976562 710 c 2
EndSplineSet
EndChar

StartChar: T
Encoding: 84 84 9
Width: 1024
VWidth: 0
Flags: HW
HStem: 680 20G<354.292 364.292>
VStem: 354.292 10<46 158 168 272 282 384 394 494 504 600 610 700>
LayerCount: 2
Fore
SplineSet
354.291015625 710 m 2
 364.291015625 710 l 2
 370.344726562 710 374.291015625 704.291992188 374.291015625 700 c 2
 374.291015625 617.03125 l 1
 520.674804688 564.41015625 l 2
 524.837890625 562.9140625 527.291015625 558.525390625 527.291015625 555 c 2
 527.291015625 545 l 2
 527.291015625 538.416015625 520.59765625 533.184570312 513.908203125 535.58984375 c 2
 374.291015625 585.778320312 l 1
 374.291015625 511.02734375 l 1
 673.096679688 403.408203125 l 2
 677.258789062 401.909179688 679.708984375 397.518554688 679.708984375 394 c 2
 679.708984375 384 l 2
 679.708984375 377.4140625 673.009765625 372.181640625 666.3203125 374.591796875 c 2
 374.291015625 479.76953125 l 1
 374.291015625 400.984375 l 1
 673.151367188 291.388671875 l 2
 677.055664062 289.95703125 679.708984375 286.125976562 679.708984375 282 c 2
 679.708984375 272 l 2
 679.708984375 265.391601562 672.966796875 260.154296875 666.265625 262.611328125 c 2
 374.291015625 369.681640625 l 1
 374.291015625 288.94140625 l 1
 673.205078125 177.368164062 l 2
 677.098632812 175.915039062 679.708984375 172.060546875 679.708984375 168 c 2
 679.708984375 158 l 2
 679.708984375 151.370117188 672.922851562 146.125976562 666.211914062 148.631835938 c 2
 374.291015625 257.59375 l 1
 374.291015625 174.984375 l 1
 673.151367188 65.388671875 l 2
 677.055664062 63.95703125 679.708984375 60.1259765625 679.708984375 56 c 2
 679.708984375 46 l 2
 679.708984375 39.3916015625 672.966796875 34.154296875 666.265625 36.611328125 c 2
 374.291015625 143.681640625 l 1
 374.291015625 52.6923828125 l 1
 673.522460938 -70.755859375 l 2
 683.78515625 -74.990234375 679.581054688 -90 669.708984375 -90 c 2
 354.291015625 -90 l 2
 348.23828125 -90 344.291015625 -84.2919921875 344.291015625 -80 c 2
 344.291015625 700 l 2
 344.291015625 706.052734375 350 710 354.291015625 710 c 2
EndSplineSet
EndChar

StartChar: S
Encoding: 83 83 10
Width: 1024
VWidth: 0
Flags: HW
HStem: 680 20G<354.292 364.292>
VStem: 354.292 10<46 158 168 272 282 384 394 494 504 700>
LayerCount: 2
Fore
SplineSet
354.291015625 710 m 2
 364.291015625 710 l 2
 370.344726562 710 374.291015625 704.291992188 374.291015625 700 c 2
 374.291015625 511.02734375 l 1
 673.096679688 403.408203125 l 2
 677.258789062 401.909179688 679.708984375 397.518554688 679.708984375 394 c 2
 679.708984375 384 l 2
 679.708984375 377.4140625 673.009765625 372.181640625 666.3203125 374.591796875 c 2
 374.291015625 479.76953125 l 1
 374.291015625 400.984375 l 1
 673.151367188 291.388671875 l 2
 677.055664062 289.95703125 679.708984375 286.125976562 679.708984375 282 c 2
 679.708984375 272 l 2
 679.708984375 265.391601562 672.966796875 260.154296875 666.265625 262.611328125 c 2
 374.291015625 369.681640625 l 1
 374.291015625 288.94140625 l 1
 673.205078125 177.368164062 l 2
 677.098632812 175.915039062 679.708984375 172.060546875 679.708984375 168 c 2
 679.708984375 158 l 2
 679.708984375 151.370117188 672.922851562 146.125976562 666.211914062 148.631835938 c 2
 374.291015625 257.59375 l 1
 374.291015625 174.984375 l 1
 673.151367188 65.388671875 l 2
 677.055664062 63.95703125 679.708984375 60.1259765625 679.708984375 56 c 2
 679.708984375 46 l 2
 679.708984375 39.3916015625 672.966796875 34.154296875 666.265625 36.611328125 c 2
 374.291015625 143.681640625 l 1
 374.291015625 52.6923828125 l 1
 673.522460938 -70.755859375 l 2
 683.78515625 -74.990234375 679.581054688 -90 669.708984375 -90 c 2
 354.291015625 -90 l 2
 348.23828125 -90 344.291015625 -84.2919921875 344.291015625 -80 c 2
 344.291015625 700 l 2
 344.291015625 706.052734375 350 710 354.291015625 710 c 2
EndSplineSet
EndChar

StartChar: R
Encoding: 82 82 11
Width: 1024
VWidth: 0
Flags: HW
HStem: 680 20G<354.292 364.292>
VStem: 354.292 10<46 158 168 272 282 384 394 494 504 700>
LayerCount: 2
Fore
SplineSet
354.291015625 710 m 2
 364.291015625 710 l 2
 370.344726562 710 374.291015625 704.291992188 374.291015625 700 c 2
 374.291015625 511.038085938 l 1
 521.106445312 458.413085938 l 2
 525.271484375 456.920898438 527.732421875 452.536132812 527.732421875 449 c 2
 527.732421875 439 l 2
 527.732421875 432.419921875 521.044921875 427.189453125 514.357421875 429.586914062 c 2
 374.291015625 479.79296875 l 1
 374.291015625 400.984375 l 1
 673.151367188 291.388671875 l 2
 677.055664062 289.95703125 679.708984375 286.125976562 679.708984375 282 c 2
 679.708984375 272 l 2
 679.708984375 265.391601562 672.966796875 260.154296875 666.265625 262.611328125 c 2
 374.291015625 369.681640625 l 1
 374.291015625 288.94140625 l 1
 673.205078125 177.368164062 l 2
 677.098632812 175.915039062 679.708984375 172.060546875 679.708984375 168 c 2
 679.708984375 158 l 2
 679.708984375 151.370117188 672.922851562 146.125976562 666.211914062 148.631835938 c 2
 374.291015625 257.59375 l 1
 374.291015625 174.984375 l 1
 673.151367188 65.388671875 l 2
 677.055664062 63.95703125 679.708984375 60.1259765625 679.708984375 56 c 2
 679.708984375 46 l 2
 679.708984375 39.3916015625 672.966796875 34.154296875 666.265625 36.611328125 c 2
 374.291015625 143.681640625 l 1
 374.291015625 52.6923828125 l 1
 673.522460938 -70.755859375 l 2
 683.78515625 -74.990234375 679.581054688 -90 669.708984375 -90 c 2
 354.291015625 -90 l 2
 348.23828125 -90 344.291015625 -84.2919921875 344.291015625 -80 c 2
 344.291015625 700 l 2
 344.291015625 706.052734375 350 710 354.291015625 710 c 2
EndSplineSet
EndChar

StartChar: Q
Encoding: 81 81 12
Width: 1024
VWidth: 0
Flags: HW
HStem: 680 20G<354.292 364.292>
VStem: 354.292 10<46 158 168 272 282 384 394 700>
LayerCount: 2
Fore
SplineSet
354.291015625 710 m 2
 364.291015625 710 l 2
 370.344726562 710 374.291015625 704.291992188 374.291015625 700 c 2
 374.291015625 400.984375 l 1
 673.151367188 291.388671875 l 2
 677.055664062 289.95703125 679.708984375 286.125976562 679.708984375 282 c 2
 679.708984375 272 l 2
 679.708984375 265.391601562 672.966796875 260.154296875 666.265625 262.611328125 c 2
 374.291015625 369.681640625 l 1
 374.291015625 288.94140625 l 1
 673.205078125 177.368164062 l 2
 677.098632812 175.915039062 679.708984375 172.060546875 679.708984375 168 c 2
 679.708984375 158 l 2
 679.708984375 151.370117188 672.922851562 146.125976562 666.211914062 148.631835938 c 2
 374.291015625 257.59375 l 1
 374.291015625 174.984375 l 1
 673.151367188 65.388671875 l 2
 677.055664062 63.95703125 679.708984375 60.1259765625 679.708984375 56 c 2
 679.708984375 46 l 2
 679.708984375 39.3916015625 672.966796875 34.154296875 666.265625 36.611328125 c 2
 374.291015625 143.681640625 l 1
 374.291015625 52.6923828125 l 1
 673.522460938 -70.755859375 l 2
 683.78515625 -74.990234375 679.581054688 -90 669.708984375 -90 c 2
 354.291015625 -90 l 2
 348.23828125 -90 344.291015625 -84.2919921875 344.291015625 -80 c 2
 344.291015625 700 l 2
 344.291015625 706.052734375 350 710 354.291015625 710 c 2
EndSplineSet
EndChar

StartChar: P
Encoding: 80 80 13
Width: 1024
VWidth: 0
Flags: HW
HStem: 680 20G<354.292 364.292>
VStem: 354.292 10<46 158 168 272 282 384 394 700>
LayerCount: 2
Fore
SplineSet
354.291015625 710 m 2
 364.291015625 710 l 2
 370.344726562 710 374.291015625 704.291992188 374.291015625 700 c 2
 374.291015625 400.953125 l 1
 521.213867188 346.374023438 l 2
 525.110351562 344.926757812 527.732421875 341.078125 527.732421875 337 c 2
 527.732421875 327 l 2
 527.732421875 320.375976562 520.958007812 315.133789062 514.25 317.625976562 c 2
 374.291015625 369.6171875 l 1
 374.291015625 288.94140625 l 1
 673.205078125 177.368164062 l 2
 677.098632812 175.915039062 679.708984375 172.060546875 679.708984375 168 c 2
 679.708984375 158 l 2
 679.708984375 151.370117188 672.922851562 146.125976562 666.211914062 148.631835938 c 2
 374.291015625 257.59375 l 1
 374.291015625 174.984375 l 1
 673.151367188 65.388671875 l 2
 677.055664062 63.95703125 679.708984375 60.1259765625 679.708984375 56 c 2
 679.708984375 46 l 2
 679.708984375 39.3916015625 672.966796875 34.154296875 666.265625 36.611328125 c 2
 374.291015625 143.681640625 l 1
 374.291015625 52.6923828125 l 1
 673.522460938 -70.755859375 l 2
 683.78515625 -74.990234375 679.581054688 -90 669.708984375 -90 c 2
 354.291015625 -90 l 2
 348.23828125 -90 344.291015625 -84.2919921875 344.291015625 -80 c 2
 344.291015625 700 l 2
 344.291015625 706.052734375 350 710 354.291015625 710 c 2
EndSplineSet
EndChar

StartChar: O
Encoding: 79 79 14
Width: 1024
VWidth: 0
Flags: HW
HStem: 680 20G<354.292 364.292>
VStem: 354.292 10<46 158 168 272 282 700>
LayerCount: 2
Fore
SplineSet
354.291015625 710 m 2
 364.291015625 710 l 2
 370.344726562 710 374.291015625 704.291992188 374.291015625 700 c 2
 374.291015625 288.94140625 l 1
 673.205078125 177.368164062 l 2
 677.098632812 175.915039062 679.708984375 172.060546875 679.708984375 168 c 2
 679.708984375 158 l 2
 679.708984375 151.370117188 672.922851562 146.125976562 666.211914062 148.631835938 c 2
 374.291015625 257.59375 l 1
 374.291015625 174.984375 l 1
 673.151367188 65.388671875 l 2
 677.055664062 63.95703125 679.708984375 60.1259765625 679.708984375 56 c 2
 679.708984375 46 l 2
 679.708984375 39.3916015625 672.966796875 34.154296875 666.265625 36.611328125 c 2
 374.291015625 143.681640625 l 1
 374.291015625 52.6923828125 l 1
 673.522460938 -70.755859375 l 2
 683.78515625 -74.990234375 679.581054688 -90 669.708984375 -90 c 2
 354.291015625 -90 l 2
 348.23828125 -90 344.291015625 -84.2919921875 344.291015625 -80 c 2
 344.291015625 700 l 2
 344.291015625 706.052734375 350 710 354.291015625 710 c 2
EndSplineSet
EndChar

StartChar: N
Encoding: 78 78 15
Width: 1024
VWidth: 0
Flags: HW
HStem: 680 20G<354.292 364.292>
VStem: 354.292 10<46 158 168 272 282 700>
LayerCount: 2
Fore
SplineSet
354.291015625 710 m 2
 364.291015625 710 l 2
 370.344726562 710 374.291015625 704.291992188 374.291015625 700 c 2
 374.291015625 288.953125 l 1
 521.213867188 234.374023438 l 2
 525.110351562 232.926757812 527.732421875 229.078125 527.732421875 225 c 2
 527.732421875 215 l 2
 527.732421875 208.375976562 520.958007812 203.133789062 514.25 205.625976562 c 2
 374.291015625 257.6171875 l 1
 374.291015625 174.984375 l 1
 673.151367188 65.388671875 l 2
 677.055664062 63.95703125 679.708984375 60.1259765625 679.708984375 56 c 2
 679.708984375 46 l 2
 679.708984375 39.3916015625 672.966796875 34.154296875 666.265625 36.611328125 c 2
 374.291015625 143.681640625 l 1
 374.291015625 52.6923828125 l 1
 673.522460938 -70.755859375 l 2
 683.78515625 -74.990234375 679.581054688 -90 669.708984375 -90 c 2
 354.291015625 -90 l 2
 348.23828125 -90 344.291015625 -84.2919921875 344.291015625 -80 c 2
 344.291015625 700 l 2
 344.291015625 706.052734375 350 710 354.291015625 710 c 2
EndSplineSet
EndChar

StartChar: L
Encoding: 76 76 16
Width: 1024
VWidth: 0
Flags: HW
HStem: 680 20G<354.417 364.417>
VStem: 354.417 10<46 158 168 700>
LayerCount: 2
Fore
SplineSet
354.416992188 710 m 2
 364.416992188 710 l 2
 370.469726562 710 374.416992188 704.291992188 374.416992188 700 c 2
 374.416992188 174.995117188 l 1
 521.286132812 121.393554688 l 2
 525.193359375 119.967773438 527.857421875 116.143554688 527.857421875 112 c 2
 527.857421875 102 l 2
 527.857421875 95.3974609375 521.126953125 90.1611328125 514.428710938 92.6064453125 c 2
 374.416992188 143.705078125 l 1
 374.416992188 52.6923828125 l 1
 673.647460938 -70.755859375 l 2
 683.911132812 -74.990234375 679.706054688 -90 669.833984375 -90 c 2
 354.416992188 -90 l 2
 348.364257812 -90 344.416992188 -84.2919921875 344.416992188 -80 c 2
 344.416992188 700 l 2
 344.416992188 706.052734375 350.125 710 354.416992188 710 c 2
EndSplineSet
EndChar

StartChar: K
Encoding: 75 75 17
Width: 1024
VWidth: 0
Flags: HW
HStem: 680 20G<354.417 364.417>
VStem: 354.417 10<46 700>
LayerCount: 2
Fore
SplineSet
354.416992188 710 m 2
 364.416992188 710 l 2
 370.469726562 710 374.416992188 704.291992188 374.416992188 700 c 2
 374.416992188 52.6923828125 l 1
 673.647460938 -70.755859375 l 2
 683.911132812 -74.990234375 679.706054688 -90 669.833984375 -90 c 2
 354.416992188 -90 l 2
 348.364257812 -90 344.416992188 -84.2919921875 344.416992188 -80 c 2
 344.416992188 700 l 2
 344.416992188 706.052734375 350.125 710 354.416992188 710 c 2
EndSplineSet
EndChar

StartChar: J
Encoding: 74 74 18
Width: 1024
VWidth: 0
Flags: HW
HStem: 680 20G<354.292 364.292>
VStem: 354.292 10<46 158 168 272 282 384 394 494 504 600 610 700>
LayerCount: 2
Fore
SplineSet
354.291015625 710 m 2
 364.291015625 710 l 2
 370.344726562 710 374.291015625 704.291992188 374.291015625 700 c 2
 374.291015625 617.03125 l 1
 520.674804688 564.41015625 l 2
 524.837890625 562.9140625 527.291015625 558.525390625 527.291015625 555 c 2
 527.291015625 545 l 2
 527.291015625 538.416015625 520.59765625 533.184570312 513.908203125 535.58984375 c 2
 374.291015625 585.778320312 l 1
 374.291015625 511.02734375 l 1
 673.096679688 403.408203125 l 2
 677.258789062 401.909179688 679.708984375 397.518554688 679.708984375 394 c 2
 679.708984375 384 l 2
 679.708984375 377.4140625 673.009765625 372.181640625 666.3203125 374.591796875 c 2
 374.291015625 479.76953125 l 1
 374.291015625 400.984375 l 1
 673.151367188 291.388671875 l 2
 677.055664062 289.95703125 679.708984375 286.125976562 679.708984375 282 c 2
 679.708984375 272 l 2
 679.708984375 265.391601562 672.966796875 260.154296875 666.265625 262.611328125 c 2
 374.291015625 369.681640625 l 1
 374.291015625 288.94140625 l 1
 673.205078125 177.368164062 l 2
 677.098632812 175.915039062 679.708984375 172.060546875 679.708984375 168 c 2
 679.708984375 158 l 2
 679.708984375 151.370117188 672.922851562 146.125976562 666.211914062 148.631835938 c 2
 374.291015625 257.59375 l 1
 374.291015625 174.984375 l 1
 673.151367188 65.388671875 l 2
 677.055664062 63.95703125 679.708984375 60.1259765625 679.708984375 56 c 2
 679.708984375 46 l 2
 679.708984375 39.3916015625 672.966796875 34.154296875 666.265625 36.611328125 c 2
 374.291015625 143.681640625 l 1
 374.291015625 46 l 2
 374.291015625 39.947265625 368.583007812 36 364.291015625 36 c 2
 354.291015625 36 l 2
 348.23828125 36 344.291015625 41.7080078125 344.291015625 46 c 2
 344.291015625 700 l 2
 344.291015625 706.052734375 350 710 354.291015625 710 c 2
EndSplineSet
EndChar

StartChar: I
Encoding: 73 73 19
Width: 1024
VWidth: 0
Flags: HW
HStem: 680 20G<354.292 364.292>
VStem: 354.292 10<46 158 168 272 282 384 394 494 504 700>
LayerCount: 2
Fore
SplineSet
354.291015625 710 m 2
 364.291015625 710 l 2
 370.344726562 710 374.291015625 704.291992188 374.291015625 700 c 2
 374.291015625 511.02734375 l 1
 673.096679688 403.408203125 l 2
 677.258789062 401.909179688 679.708984375 397.518554688 679.708984375 394 c 2
 679.708984375 384 l 2
 679.708984375 377.4140625 673.009765625 372.181640625 666.3203125 374.591796875 c 2
 374.291015625 479.76953125 l 1
 374.291015625 400.984375 l 1
 673.151367188 291.388671875 l 2
 677.055664062 289.95703125 679.708984375 286.125976562 679.708984375 282 c 2
 679.708984375 272 l 2
 679.708984375 265.391601562 672.966796875 260.154296875 666.265625 262.611328125 c 2
 374.291015625 369.681640625 l 1
 374.291015625 288.94140625 l 1
 673.205078125 177.368164062 l 2
 677.098632812 175.915039062 679.708984375 172.060546875 679.708984375 168 c 2
 679.708984375 158 l 2
 679.708984375 151.370117188 672.922851562 146.125976562 666.211914062 148.631835938 c 2
 374.291015625 257.59375 l 1
 374.291015625 174.984375 l 1
 673.151367188 65.388671875 l 2
 677.055664062 63.95703125 679.708984375 60.1259765625 679.708984375 56 c 2
 679.708984375 46 l 2
 679.708984375 39.3916015625 672.966796875 34.154296875 666.265625 36.611328125 c 2
 374.291015625 143.681640625 l 1
 374.291015625 46 l 2
 374.291015625 39.947265625 368.583007812 36 364.291015625 36 c 2
 354.291015625 36 l 2
 348.23828125 36 344.291015625 41.7080078125 344.291015625 46 c 2
 344.291015625 700 l 2
 344.291015625 706.052734375 350 710 354.291015625 710 c 2
EndSplineSet
EndChar

StartChar: H
Encoding: 72 72 20
Width: 1024
VWidth: 0
Flags: HW
HStem: 680 20G<354.292 364.292>
VStem: 354.292 10<46 158 168 272 282 384 394 494 504 700>
LayerCount: 2
Fore
SplineSet
354.291015625 710 m 2
 364.291015625 710 l 2
 370.344726562 710 374.291015625 704.291992188 374.291015625 700 c 2
 374.291015625 511.038085938 l 1
 521.106445312 458.413085938 l 2
 525.271484375 456.920898438 527.732421875 452.536132812 527.732421875 449 c 2
 527.732421875 439 l 2
 527.732421875 432.419921875 521.044921875 427.189453125 514.357421875 429.586914062 c 2
 374.291015625 479.79296875 l 1
 374.291015625 400.984375 l 1
 673.151367188 291.388671875 l 2
 677.055664062 289.95703125 679.708984375 286.125976562 679.708984375 282 c 2
 679.708984375 272 l 2
 679.708984375 265.391601562 672.966796875 260.154296875 666.265625 262.611328125 c 2
 374.291015625 369.681640625 l 1
 374.291015625 288.94140625 l 1
 673.205078125 177.368164062 l 2
 677.098632812 175.915039062 679.708984375 172.060546875 679.708984375 168 c 2
 679.708984375 158 l 2
 679.708984375 151.370117188 672.922851562 146.125976562 666.211914062 148.631835938 c 2
 374.291015625 257.59375 l 1
 374.291015625 174.984375 l 1
 673.151367188 65.388671875 l 2
 677.055664062 63.95703125 679.708984375 60.1259765625 679.708984375 56 c 2
 679.708984375 46 l 2
 679.708984375 39.3916015625 672.966796875 34.154296875 666.265625 36.611328125 c 2
 374.291015625 143.681640625 l 1
 374.291015625 46 l 2
 374.291015625 39.947265625 368.583007812 36 364.291015625 36 c 2
 354.291015625 36 l 2
 348.23828125 36 344.291015625 41.7080078125 344.291015625 46 c 2
 344.291015625 700 l 2
 344.291015625 706.052734375 350 710 354.291015625 710 c 2
EndSplineSet
EndChar

StartChar: G
Encoding: 71 71 21
Width: 1024
VWidth: 0
Flags: HW
HStem: 680 20G<354.292 364.292>
VStem: 354.292 10<46 158 168 272 282 384 394 700>
LayerCount: 2
Fore
SplineSet
354.291015625 710 m 2
 364.291015625 710 l 2
 370.344726562 710 374.291015625 704.291992188 374.291015625 700 c 2
 374.291015625 400.984375 l 1
 673.151367188 291.388671875 l 2
 677.055664062 289.95703125 679.708984375 286.125976562 679.708984375 282 c 2
 679.708984375 272 l 2
 679.708984375 265.391601562 672.966796875 260.154296875 666.265625 262.611328125 c 2
 374.291015625 369.681640625 l 1
 374.291015625 288.94140625 l 1
 673.205078125 177.368164062 l 2
 677.098632812 175.915039062 679.708984375 172.060546875 679.708984375 168 c 2
 679.708984375 158 l 2
 679.708984375 151.370117188 672.922851562 146.125976562 666.211914062 148.631835938 c 2
 374.291015625 257.59375 l 1
 374.291015625 174.984375 l 1
 673.151367188 65.388671875 l 2
 677.055664062 63.95703125 679.708984375 60.1259765625 679.708984375 56 c 2
 679.708984375 46 l 2
 679.708984375 39.3916015625 672.966796875 34.154296875 666.265625 36.611328125 c 2
 374.291015625 143.681640625 l 1
 374.291015625 46 l 2
 374.291015625 39.947265625 368.583007812 36 364.291015625 36 c 2
 354.291015625 36 l 2
 348.23828125 36 344.291015625 41.7080078125 344.291015625 46 c 2
 344.291015625 700 l 2
 344.291015625 706.052734375 350 710 354.291015625 710 c 2
EndSplineSet
EndChar

StartChar: F
Encoding: 70 70 22
Width: 1024
VWidth: 0
Flags: HW
HStem: 680 20G<354.292 364.292>
VStem: 354.292 10<46 158 168 272 282 384 394 700>
LayerCount: 2
Fore
SplineSet
354.291015625 710 m 2
 364.291015625 710 l 2
 370.344726562 710 374.291015625 704.291992188 374.291015625 700 c 2
 374.291015625 400.953125 l 1
 521.213867188 346.374023438 l 2
 525.110351562 344.926757812 527.732421875 341.078125 527.732421875 337 c 2
 527.732421875 327 l 2
 527.732421875 320.375976562 520.958007812 315.133789062 514.25 317.625976562 c 2
 374.291015625 369.6171875 l 1
 374.291015625 288.94140625 l 1
 673.205078125 177.368164062 l 2
 677.098632812 175.915039062 679.708984375 172.060546875 679.708984375 168 c 2
 679.708984375 158 l 2
 679.708984375 151.370117188 672.922851562 146.125976562 666.211914062 148.631835938 c 2
 374.291015625 257.59375 l 1
 374.291015625 174.984375 l 1
 673.151367188 65.388671875 l 2
 677.055664062 63.95703125 679.708984375 60.1259765625 679.708984375 56 c 2
 679.708984375 46 l 2
 679.708984375 39.3916015625 672.966796875 34.154296875 666.265625 36.611328125 c 2
 374.291015625 143.681640625 l 1
 374.291015625 46 l 2
 374.291015625 39.947265625 368.583007812 36 364.291015625 36 c 2
 354.291015625 36 l 2
 348.23828125 36 344.291015625 41.7080078125 344.291015625 46 c 2
 344.291015625 700 l 2
 344.291015625 706.052734375 350 710 354.291015625 710 c 2
EndSplineSet
EndChar

StartChar: E
Encoding: 69 69 23
Width: 1024
VWidth: 0
Flags: HW
HStem: 680 20G<354.292 364.292>
VStem: 354.292 10<46 158 168 272 282 700>
LayerCount: 2
Fore
SplineSet
354.291015625 710 m 2
 364.291015625 710 l 2
 370.344726562 710 374.291015625 704.291992188 374.291015625 700 c 2
 374.291015625 288.94140625 l 1
 673.205078125 177.368164062 l 2
 677.098632812 175.915039062 679.708984375 172.060546875 679.708984375 168 c 2
 679.708984375 158 l 2
 679.708984375 151.370117188 672.922851562 146.125976562 666.211914062 148.631835938 c 2
 374.291015625 257.59375 l 1
 374.291015625 174.984375 l 1
 673.151367188 65.388671875 l 2
 677.055664062 63.95703125 679.708984375 60.1259765625 679.708984375 56 c 2
 679.708984375 46 l 2
 679.708984375 39.3916015625 672.966796875 34.154296875 666.265625 36.611328125 c 2
 374.291015625 143.681640625 l 1
 374.291015625 46 l 2
 374.291015625 39.947265625 368.583007812 36 364.291015625 36 c 2
 354.291015625 36 l 2
 348.23828125 36 344.291015625 41.7080078125 344.291015625 46 c 2
 344.291015625 700 l 2
 344.291015625 706.052734375 350 710 354.291015625 710 c 2
EndSplineSet
EndChar

StartChar: D
Encoding: 68 68 24
Width: 1024
VWidth: 0
Flags: HW
HStem: 680 20G<354.292 364.292>
VStem: 354.292 10<46 158 168 272 282 700>
LayerCount: 2
Fore
SplineSet
354.291015625 710 m 2
 364.291015625 710 l 2
 370.344726562 710 374.291015625 704.291992188 374.291015625 700 c 2
 374.291015625 288.953125 l 1
 521.213867188 234.374023438 l 2
 525.110351562 232.926757812 527.732421875 229.078125 527.732421875 225 c 2
 527.732421875 215 l 2
 527.732421875 208.375976562 520.958007812 203.133789062 514.25 205.625976562 c 2
 374.291015625 257.6171875 l 1
 374.291015625 174.984375 l 1
 673.151367188 65.388671875 l 2
 677.055664062 63.95703125 679.708984375 60.1259765625 679.708984375 56 c 2
 679.708984375 46 l 2
 679.708984375 39.3916015625 672.966796875 34.154296875 666.265625 36.611328125 c 2
 374.291015625 143.681640625 l 1
 374.291015625 46 l 2
 374.291015625 39.947265625 368.583007812 36 364.291015625 36 c 2
 354.291015625 36 l 2
 348.23828125 36 344.291015625 41.7080078125 344.291015625 46 c 2
 344.291015625 700 l 2
 344.291015625 706.052734375 350 710 354.291015625 710 c 2
EndSplineSet
EndChar

StartChar: C
Encoding: 67 67 25
Width: 1024
VWidth: 0
Flags: HW
HStem: 680 20G<354.292 364.292>
VStem: 354.292 10<46 158 168 700>
LayerCount: 2
Fore
SplineSet
354.291015625 710 m 2
 364.291015625 710 l 2
 370.344726562 710 374.291015625 704.291992188 374.291015625 700 c 2
 374.291015625 174.984375 l 1
 673.151367188 65.388671875 l 2
 677.055664062 63.95703125 679.708984375 60.1259765625 679.708984375 56 c 2
 679.708984375 46 l 2
 679.708984375 39.3916015625 672.966796875 34.154296875 666.265625 36.611328125 c 2
 374.291015625 143.681640625 l 1
 374.291015625 46 l 2
 374.291015625 39.947265625 368.583007812 36 364.291015625 36 c 2
 354.291015625 36 l 2
 348.23828125 36 344.291015625 41.7080078125 344.291015625 46 c 2
 344.291015625 700 l 2
 344.291015625 706.052734375 350 710 354.291015625 710 c 2
EndSplineSet
EndChar

StartChar: bracketleft
Encoding: 91 91 26
Width: 1024
VWidth: 0
Flags: HW
HStem: 680 20G<354.126 364.126>
VStem: 354.126 10<46 158 168 272 282 384 394 700>
LayerCount: 2
Fore
SplineSet
354.125976562 710 m 2
 364.125976562 710 l 2
 370.178710938 710 374.125976562 704.291992188 374.125976562 700 c 2
 374.125976562 400.984375 l 1
 672.985351562 291.388671875 l 2
 676.889648438 289.95703125 679.54296875 286.125976562 679.54296875 282 c 2
 679.54296875 272 l 2
 679.54296875 265.391601562 672.80078125 260.154296875 666.099609375 262.611328125 c 2
 374.125976562 369.681640625 l 1
 374.125976562 288.94140625 l 1
 673.0390625 177.368164062 l 2
 676.932617188 175.915039062 679.54296875 172.060546875 679.54296875 168 c 2
 679.54296875 158 l 2
 679.54296875 151.370117188 672.756835938 146.125976562 666.045898438 148.631835938 c 2
 374.125976562 257.59375 l 1
 374.125976562 174.984375 l 1
 672.985351562 65.388671875 l 2
 676.889648438 63.95703125 679.54296875 60.1259765625 679.54296875 56 c 2
 679.54296875 46 l 2
 679.54296875 39.3916015625 672.80078125 34.154296875 666.099609375 36.611328125 c 2
 374.125976562 143.681640625 l 1
 374.125976562 52.697265625 l 1
 673.932617188 -70.7529296875 l 2
 684.198242188 -74.9794921875 680.008789062 -90 670.125976562 -90 c 2
 415.315429688 -90 l 1
 673.334960938 -195.747070312 l 2
 683.603515625 -199.956054688 679.454101562 -215 669.54296875 -215 c 2
 354.125976562 -215 l 2
 348.072265625 -215 344.125976562 -209.291992188 344.125976562 -205 c 0
 344.125976562 96.6669921875 344.125976562 398.333007812 344.125976562 700 c 0
 344.125976562 706.052734375 349.833984375 710 354.125976562 710 c 2
EndSplineSet
EndChar

StartChar: backslash
Encoding: 92 92 27
Width: 1024
VWidth: 0
Flags: HW
HStem: 680 20G<354.126 364.126>
VStem: 354.126 10<46 158 168 272 282 384 394 494 504 700>
LayerCount: 2
Fore
SplineSet
354.125976562 710 m 2
 364.125976562 710 l 2
 370.178710938 710 374.125976562 704.291992188 374.125976562 700 c 2
 374.125976562 511.038085938 l 1
 520.940429688 458.413085938 l 2
 525.10546875 456.920898438 527.56640625 452.536132812 527.56640625 449 c 2
 527.56640625 439 l 2
 527.56640625 432.419921875 520.87890625 427.189453125 514.19140625 429.586914062 c 2
 374.125976562 479.79296875 l 1
 374.125976562 400.984375 l 1
 672.985351562 291.388671875 l 2
 676.889648438 289.95703125 679.54296875 286.125976562 679.54296875 282 c 2
 679.54296875 272 l 2
 679.54296875 265.391601562 672.80078125 260.154296875 666.099609375 262.611328125 c 2
 374.125976562 369.681640625 l 1
 374.125976562 288.94140625 l 1
 673.0390625 177.368164062 l 2
 676.932617188 175.915039062 679.54296875 172.060546875 679.54296875 168 c 2
 679.54296875 158 l 2
 679.54296875 151.370117188 672.756835938 146.125976562 666.045898438 148.631835938 c 2
 374.125976562 257.59375 l 1
 374.125976562 174.984375 l 1
 672.985351562 65.388671875 l 2
 676.889648438 63.95703125 679.54296875 60.1259765625 679.54296875 56 c 2
 679.54296875 46 l 2
 679.54296875 39.3916015625 672.80078125 34.154296875 666.099609375 36.611328125 c 2
 374.125976562 143.681640625 l 1
 374.125976562 52.697265625 l 1
 673.932617188 -70.7529296875 l 2
 684.198242188 -74.9794921875 680.008789062 -90 670.125976562 -90 c 2
 415.315429688 -90 l 1
 673.334960938 -195.747070312 l 2
 683.603515625 -199.956054688 679.454101562 -215 669.54296875 -215 c 2
 354.125976562 -215 l 2
 348.072265625 -215 344.125976562 -209.291992188 344.125976562 -205 c 0
 344.125976562 96.6669921875 344.125976562 398.333007812 344.125976562 700 c 0
 344.125976562 706.052734375 349.833984375 710 354.125976562 710 c 2
EndSplineSet
EndChar

StartChar: bracketright
Encoding: 93 93 28
Width: 1024
VWidth: 0
Flags: HW
HStem: 680 20G<354.126 364.126>
VStem: 354.126 10<46 158 168 272 282 384 394 494 504 700>
LayerCount: 2
Fore
SplineSet
354.125976562 710 m 2
 364.125976562 710 l 2
 370.178710938 710 374.125976562 704.291992188 374.125976562 700 c 2
 374.125976562 511.02734375 l 1
 672.930664062 403.408203125 l 2
 677.092773438 401.909179688 679.54296875 397.518554688 679.54296875 394 c 2
 679.54296875 384 l 2
 679.54296875 377.4140625 672.84375 372.181640625 666.154296875 374.591796875 c 2
 374.125976562 479.76953125 l 1
 374.125976562 400.984375 l 1
 672.985351562 291.388671875 l 2
 676.889648438 289.95703125 679.54296875 286.125976562 679.54296875 282 c 2
 679.54296875 272 l 2
 679.54296875 265.391601562 672.80078125 260.154296875 666.099609375 262.611328125 c 2
 374.125976562 369.681640625 l 1
 374.125976562 288.94140625 l 1
 673.0390625 177.368164062 l 2
 676.932617188 175.915039062 679.54296875 172.060546875 679.54296875 168 c 2
 679.54296875 158 l 2
 679.54296875 151.370117188 672.756835938 146.125976562 666.045898438 148.631835938 c 2
 374.125976562 257.59375 l 1
 374.125976562 174.984375 l 1
 672.985351562 65.388671875 l 2
 676.889648438 63.95703125 679.54296875 60.1259765625 679.54296875 56 c 2
 679.54296875 46 l 2
 679.54296875 39.3916015625 672.80078125 34.154296875 666.099609375 36.611328125 c 2
 374.125976562 143.681640625 l 1
 374.125976562 52.697265625 l 1
 673.932617188 -70.7529296875 l 2
 684.198242188 -74.9794921875 680.008789062 -90 670.125976562 -90 c 2
 415.315429688 -90 l 1
 673.334960938 -195.747070312 l 2
 683.603515625 -199.956054688 679.454101562 -215 669.54296875 -215 c 2
 354.125976562 -215 l 2
 348.072265625 -215 344.125976562 -209.291992188 344.125976562 -205 c 0
 344.125976562 96.6669921875 344.125976562 398.333007812 344.125976562 700 c 0
 344.125976562 706.052734375 349.833984375 710 354.125976562 710 c 2
EndSplineSet
EndChar

StartChar: asciicircum
Encoding: 94 94 29
Width: 1024
VWidth: 0
Flags: HW
HStem: 680 20G<354.126 364.126>
VStem: 354.126 10<46 158 168 272 282 384 394 494 504 600 610 700>
LayerCount: 2
Fore
SplineSet
354.125976562 710 m 2
 364.125976562 710 l 2
 370.178710938 710 374.125976562 704.291992188 374.125976562 700 c 2
 374.125976562 617.03125 l 1
 520.508789062 564.41015625 l 2
 524.671875 562.9140625 527.125976562 558.525390625 527.125976562 555 c 2
 527.125976562 545 l 2
 527.125976562 538.416015625 520.431640625 533.184570312 513.743164062 535.58984375 c 2
 374.125976562 585.778320312 l 1
 374.125976562 511.02734375 l 1
 672.930664062 403.408203125 l 2
 677.092773438 401.909179688 679.54296875 397.518554688 679.54296875 394 c 2
 679.54296875 384 l 2
 679.54296875 377.4140625 672.84375 372.181640625 666.154296875 374.591796875 c 2
 374.125976562 479.76953125 l 1
 374.125976562 400.984375 l 1
 672.985351562 291.388671875 l 2
 676.889648438 289.95703125 679.54296875 286.125976562 679.54296875 282 c 2
 679.54296875 272 l 2
 679.54296875 265.391601562 672.80078125 260.154296875 666.099609375 262.611328125 c 2
 374.125976562 369.681640625 l 1
 374.125976562 288.94140625 l 1
 673.0390625 177.368164062 l 2
 676.932617188 175.915039062 679.54296875 172.060546875 679.54296875 168 c 2
 679.54296875 158 l 2
 679.54296875 151.370117188 672.756835938 146.125976562 666.045898438 148.631835938 c 2
 374.125976562 257.59375 l 1
 374.125976562 174.984375 l 1
 672.985351562 65.388671875 l 2
 676.889648438 63.95703125 679.54296875 60.1259765625 679.54296875 56 c 2
 679.54296875 46 l 2
 679.54296875 39.3916015625 672.80078125 34.154296875 666.099609375 36.611328125 c 2
 374.125976562 143.681640625 l 1
 374.125976562 52.697265625 l 1
 673.932617188 -70.7529296875 l 2
 684.198242188 -74.9794921875 680.008789062 -90 670.125976562 -90 c 2
 415.315429688 -90 l 1
 673.334960938 -195.747070312 l 2
 683.603515625 -199.956054688 679.454101562 -215 669.54296875 -215 c 2
 354.125976562 -215 l 2
 348.072265625 -215 344.125976562 -209.291992188 344.125976562 -205 c 0
 344.125976562 96.6669921875 344.125976562 398.333007812 344.125976562 700 c 0
 344.125976562 706.052734375 349.833984375 710 354.125976562 710 c 2
EndSplineSet
EndChar

StartChar: a
Encoding: 97 97 30
Width: 1024
VWidth: 0
Flags: HW
HStem: 680 20G<354.126 364.126>
VStem: 354.126 10<46 158 168 272 282 384 394 700>
LayerCount: 2
Fore
SplineSet
354.125976562 710 m 2
 364.125976562 710 l 2
 370.178710938 710 374.125976562 704.291992188 374.125976562 700 c 2
 374.125976562 400.984375 l 1
 672.985351562 291.388671875 l 2
 676.889648438 289.95703125 679.54296875 286.125976562 679.54296875 282 c 2
 679.54296875 272 l 2
 679.54296875 265.391601562 672.80078125 260.154296875 666.099609375 262.611328125 c 2
 374.125976562 369.681640625 l 1
 374.125976562 288.94140625 l 1
 673.0390625 177.368164062 l 2
 676.932617188 175.915039062 679.54296875 172.060546875 679.54296875 168 c 2
 679.54296875 158 l 2
 679.54296875 151.370117188 672.756835938 146.125976562 666.045898438 148.631835938 c 2
 374.125976562 257.59375 l 1
 374.125976562 174.984375 l 1
 672.985351562 65.388671875 l 2
 676.889648438 63.95703125 679.54296875 60.1259765625 679.54296875 56 c 2
 679.54296875 46 l 2
 679.54296875 39.3916015625 672.80078125 34.154296875 666.099609375 36.611328125 c 2
 374.125976562 143.681640625 l 1
 374.125976562 52.697265625 l 1
 673.932617188 -70.7529296875 l 2
 684.198242188 -74.9794921875 680.008789062 -90 670.125976562 -90 c 2
 415.315429688 -90 l 1
 673.334960938 -195.747070312 l 2
 683.603515625 -199.956054688 679.454101562 -215 669.54296875 -215 c 2
 354.125976562 -215 l 2
 348.072265625 -215 344.125976562 -209.291992188 344.125976562 -205 c 0
 344.125976562 96.6669921875 344.125976562 398.333007812 344.125976562 700 c 0
 344.125976562 706.052734375 349.833984375 710 354.125976562 710 c 2
EndSplineSet
EndChar

StartChar: b
Encoding: 98 98 31
Width: 1024
VWidth: 0
Flags: HW
HStem: 680 20G<354.126 364.126>
VStem: 354.126 10<46 158 168 272 282 384 394 494 504 700>
LayerCount: 2
Fore
SplineSet
354.125976562 710 m 2
 364.125976562 710 l 2
 370.178710938 710 374.125976562 704.291992188 374.125976562 700 c 2
 374.125976562 511.038085938 l 1
 520.940429688 458.413085938 l 2
 525.10546875 456.920898438 527.56640625 452.536132812 527.56640625 449 c 2
 527.56640625 439 l 2
 527.56640625 432.419921875 520.87890625 427.189453125 514.19140625 429.586914062 c 2
 374.125976562 479.79296875 l 1
 374.125976562 400.984375 l 1
 672.985351562 291.388671875 l 2
 676.889648438 289.95703125 679.54296875 286.125976562 679.54296875 282 c 2
 679.54296875 272 l 2
 679.54296875 265.391601562 672.80078125 260.154296875 666.099609375 262.611328125 c 2
 374.125976562 369.681640625 l 1
 374.125976562 288.94140625 l 1
 673.0390625 177.368164062 l 2
 676.932617188 175.915039062 679.54296875 172.060546875 679.54296875 168 c 2
 679.54296875 158 l 2
 679.54296875 151.370117188 672.756835938 146.125976562 666.045898438 148.631835938 c 2
 374.125976562 257.59375 l 1
 374.125976562 174.984375 l 1
 672.985351562 65.388671875 l 2
 676.889648438 63.95703125 679.54296875 60.1259765625 679.54296875 56 c 2
 679.54296875 46 l 2
 679.54296875 39.3916015625 672.80078125 34.154296875 666.099609375 36.611328125 c 2
 374.125976562 143.681640625 l 1
 374.125976562 52.697265625 l 1
 673.932617188 -70.7529296875 l 2
 684.198242188 -74.9794921875 680.008789062 -90 670.125976562 -90 c 2
 415.315429688 -90 l 1
 673.334960938 -195.747070312 l 2
 683.603515625 -199.956054688 679.454101562 -215 669.54296875 -215 c 2
 354.125976562 -215 l 2
 348.072265625 -215 344.125976562 -209.291992188 344.125976562 -205 c 0
 344.125976562 96.6669921875 344.125976562 398.333007812 344.125976562 700 c 0
 344.125976562 706.052734375 349.833984375 710 354.125976562 710 c 2
EndSplineSet
EndChar

StartChar: c
Encoding: 99 99 32
Width: 1024
VWidth: 0
Flags: HW
HStem: 680 20G<354.126 364.126>
VStem: 354.126 10<46 158 168 272 282 384 394 494 504 700>
LayerCount: 2
Fore
SplineSet
354.125976562 710 m 2
 364.125976562 710 l 2
 370.178710938 710 374.125976562 704.291992188 374.125976562 700 c 2
 374.125976562 511.02734375 l 1
 672.930664062 403.408203125 l 2
 677.092773438 401.909179688 679.54296875 397.518554688 679.54296875 394 c 2
 679.54296875 384 l 2
 679.54296875 377.4140625 672.84375 372.181640625 666.154296875 374.591796875 c 2
 374.125976562 479.76953125 l 1
 374.125976562 400.984375 l 1
 672.985351562 291.388671875 l 2
 676.889648438 289.95703125 679.54296875 286.125976562 679.54296875 282 c 2
 679.54296875 272 l 2
 679.54296875 265.391601562 672.80078125 260.154296875 666.099609375 262.611328125 c 2
 374.125976562 369.681640625 l 1
 374.125976562 288.94140625 l 1
 673.0390625 177.368164062 l 2
 676.932617188 175.915039062 679.54296875 172.060546875 679.54296875 168 c 2
 679.54296875 158 l 2
 679.54296875 151.370117188 672.756835938 146.125976562 666.045898438 148.631835938 c 2
 374.125976562 257.59375 l 1
 374.125976562 174.984375 l 1
 672.985351562 65.388671875 l 2
 676.889648438 63.95703125 679.54296875 60.1259765625 679.54296875 56 c 2
 679.54296875 46 l 2
 679.54296875 39.3916015625 672.80078125 34.154296875 666.099609375 36.611328125 c 2
 374.125976562 143.681640625 l 1
 374.125976562 52.697265625 l 1
 673.932617188 -70.7529296875 l 2
 684.198242188 -74.9794921875 680.008789062 -90 670.125976562 -90 c 2
 415.315429688 -90 l 1
 673.334960938 -195.747070312 l 2
 683.603515625 -199.956054688 679.454101562 -215 669.54296875 -215 c 2
 354.125976562 -215 l 2
 348.072265625 -215 344.125976562 -209.291992188 344.125976562 -205 c 0
 344.125976562 96.6669921875 344.125976562 398.333007812 344.125976562 700 c 0
 344.125976562 706.052734375 349.833984375 710 354.125976562 710 c 2
EndSplineSet
EndChar

StartChar: d
Encoding: 100 100 33
Width: 1024
VWidth: 0
Flags: HW
HStem: 680 20G<354.126 364.126>
VStem: 354.126 10<46 158 168 272 282 384 394 494 504 600 610 700>
LayerCount: 2
Fore
SplineSet
354.125976562 710 m 2
 364.125976562 710 l 2
 370.178710938 710 374.125976562 704.291992188 374.125976562 700 c 2
 374.125976562 617.03125 l 1
 520.508789062 564.41015625 l 2
 524.671875 562.9140625 527.125976562 558.525390625 527.125976562 555 c 2
 527.125976562 545 l 2
 527.125976562 538.416015625 520.431640625 533.184570312 513.743164062 535.58984375 c 2
 374.125976562 585.778320312 l 1
 374.125976562 511.02734375 l 1
 672.930664062 403.408203125 l 2
 677.092773438 401.909179688 679.54296875 397.518554688 679.54296875 394 c 2
 679.54296875 384 l 2
 679.54296875 377.4140625 672.84375 372.181640625 666.154296875 374.591796875 c 2
 374.125976562 479.76953125 l 1
 374.125976562 400.984375 l 1
 672.985351562 291.388671875 l 2
 676.889648438 289.95703125 679.54296875 286.125976562 679.54296875 282 c 2
 679.54296875 272 l 2
 679.54296875 265.391601562 672.80078125 260.154296875 666.099609375 262.611328125 c 2
 374.125976562 369.681640625 l 1
 374.125976562 288.94140625 l 1
 673.0390625 177.368164062 l 2
 676.932617188 175.915039062 679.54296875 172.060546875 679.54296875 168 c 2
 679.54296875 158 l 2
 679.54296875 151.370117188 672.756835938 146.125976562 666.045898438 148.631835938 c 2
 374.125976562 257.59375 l 1
 374.125976562 174.984375 l 1
 672.985351562 65.388671875 l 2
 676.889648438 63.95703125 679.54296875 60.1259765625 679.54296875 56 c 2
 679.54296875 46 l 2
 679.54296875 39.3916015625 672.80078125 34.154296875 666.099609375 36.611328125 c 2
 374.125976562 143.681640625 l 1
 374.125976562 52.697265625 l 1
 673.932617188 -70.7529296875 l 2
 684.198242188 -74.9794921875 680.008789062 -90 670.125976562 -90 c 2
 415.315429688 -90 l 1
 673.334960938 -195.747070312 l 2
 683.603515625 -199.956054688 679.454101562 -215 669.54296875 -215 c 2
 354.125976562 -215 l 2
 348.072265625 -215 344.125976562 -209.291992188 344.125976562 -205 c 0
 344.125976562 96.6669921875 344.125976562 398.333007812 344.125976562 700 c 0
 344.125976562 706.052734375 349.833984375 710 354.125976562 710 c 2
EndSplineSet
EndChar
